<svg width="18" height="18" viewBox="0 0 18 18" fill="none" xmlns="http://www.w3.org/2000/svg">
<path d="M16.0135 17.0561L16.1196 17.1621L16.2257 17.0561L16.7257 16.5561L16.8317 16.45L16.7257 16.3439L10.5741 10.1924C10.9454 9.7481 11.2484 9.21786 11.4846 8.60383C11.7411 7.93699 11.8696 7.25209 11.8696 6.54999C11.8696 4.97387 11.3211 3.63445 10.2256 2.54095C9.13019 1.44753 7.79046 0.899988 6.21553 0.899988C4.64052 0.899988 3.30205 1.44856 2.20933 2.54406L2.20933 2.54406C1.11672 3.63945 0.569604 4.97917 0.569604 6.55406C0.569604 8.12899 1.11716 9.46743 2.2107 10.5602C3.30423 11.6529 4.6436 12.2 6.2196 12.2C6.87171 12.2 7.53049 12.0798 8.19528 11.8412C8.81628 11.6182 9.37188 11.3058 9.86102 10.9035L16.0135 17.0561ZM9.52604 9.85642C8.63016 10.7523 7.53124 11.2 6.2196 11.2C4.90796 11.2 3.80905 10.7523 2.91317 9.85642C2.01729 8.96054 1.5696 7.86163 1.5696 6.54999C1.5696 5.23835 2.01729 4.13943 2.91317 3.24355C3.80905 2.34767 4.90796 1.89999 6.2196 1.89999C7.53124 1.89999 8.63016 2.34767 9.52604 3.24355C10.4219 4.13943 10.8696 5.23835 10.8696 6.54999C10.8696 7.86163 10.4219 8.96054 9.52604 9.85642Z" fill="#BFBFBF" stroke="#BFBFBF" stroke-width="0.3"/>
</svg>
